<svg xmlns="http://www.w3.org/2000/svg" viewBox="0 0 200 130" fill="none"><defs><radialGradient id="sh" cx=".5" cy=".5"><stop stop-color="#26262E" stop-opacity=".16"></stop><stop offset="1" stop-color="#26262E" stop-opacity="0"></stop></radialGradient><linearGradient id="cov2" x1="0" y1="0" x2="0" y2="1"><stop stop-color="#9A9AEE"></stop><stop offset="1" stop-color="#5B5BD6"></stop></linearGradient><linearGradient id="cov2b" x1="0" y1="0" x2="0" y2="1"><stop stop-color="#C6CAF6"></stop><stop offset="1" stop-color="#9DA2EF"></stop></linearGradient><linearGradient id="med" x1="0" y1="0" x2="0" y2="1"><stop stop-color="#8CF0C8"></stop><stop offset="1" stop-color="#2E9E76"></stop></linearGradient></defs><ellipse cx="98" cy="117" rx="58" ry="8" fill="url(#sh)"></ellipse>
<path d="M44 34h8v78h-8z" fill="#7E7EDF"></path>
<path d="M52 34h58a4 4 0 014 4v70a4 4 0 01-4 4H52z" fill="url(#cov2b)"></path>
<rect x="64" y="52" width="36" height="3.5" rx="1.75" fill="#FFFFFF" opacity=".85"></rect>
<rect x="68" y="62" width="28" height="3" rx="1.5" fill="#FFFFFF" opacity=".6"></rect>
<path d="M74 20h8v92h-8z" fill="#4A4AC0"></path>
<path d="M82 20h60a4 4 0 014 4v84a4 4 0 01-4 4H82z" fill="url(#cov2)"></path>
<path d="M86 24h56v84H86z" fill="none" stroke="#C6CAF6" stroke-width="1.5" opacity=".5"></path>
<rect x="96" y="38" width="38" height="4" rx="2" fill="#FFFFFF" opacity=".9"></rect>
<rect x="102" y="48" width="26" height="3" rx="1.5" fill="#C6CAF6" opacity=".8"></rect>
<path d="M44 112h102l6 6H50z" fill="#DCDEF4"></path>
<circle cx="150" cy="82" r="21" fill="url(#med)"></circle>
<circle cx="150" cy="82" r="13" fill="#FFFFFF" opacity=".3"></circle>
<path d="M150 71c1.4 6.6 3.8 9 10.4 10.4-6.6 1.4-9 3.8-10.4 10.4-1.4-6.6-3.8-9-10.4-10.4 6.6-1.4 9-3.8 10.4-10.4z" fill="#FFFFFF"></path>
<path d="M140 100l-4 18 14-7 14 7-4-18" fill="#5B5BD6"></path></svg>