<svg xmlns="http://www.w3.org/2000/svg" viewBox="0 0 200 130" fill="none"><defs><radialGradient id="sh" cx=".5" cy=".5"><stop stop-color="#26262E" stop-opacity=".16"></stop><stop offset="1" stop-color="#26262E" stop-opacity="0"></stop></radialGradient><linearGradient id="s" x1="0" y1="0" x2="0" y2="1"><stop stop-color="#FFFFFF"></stop><stop offset="1" stop-color="#EDEEF8"></stop></linearGradient><linearGradient id="m" x1="0" y1="0" x2="0" y2="1"><stop stop-color="#8CF0C8"></stop><stop offset="1" stop-color="#2E9E76"></stop></linearGradient></defs><ellipse cx="100" cy="118" rx="58" ry="8" fill="url(#sh)"></ellipse>
<rect x="44" y="16" width="92" height="62" rx="6" fill="url(#s)" stroke="#DCDEF4" stroke-width="1.5"></rect>
<rect x="56" y="28" width="46" height="4" rx="2" fill="#C6CAF6"></rect>
<rect x="56" y="40" width="34" height="3" rx="1.5" fill="#DCDEF4"></rect>
<rect x="56" y="49" width="40" height="3" rx="1.5" fill="#DCDEF4"></rect>
<rect x="56" y="58" width="26" height="3" rx="1.5" fill="#DCDEF4"></rect>
<rect x="108" y="40" width="20" height="24" rx="3" fill="#6EE7B7" opacity=".85"></rect>
<rect x="86" y="78" width="8" height="20" fill="#B9BEF3"></rect>
<rect x="62" y="98" width="56" height="8" rx="3" fill="#5B5BD6"></rect>
<circle cx="152" cy="52" r="16" fill="url(#m)" opacity=".9"></circle>
<path d="M152 43c1.2 5.4 3.4 7.6 8.8 8.8-5.4 1.2-7.6 3.4-8.8 8.8-1.2-5.4-3.4-7.6-8.8-8.8 5.4-1.2 7.6-3.4 8.8-8.8z" fill="#FFFFFF"></path></svg>